inDegrees=yes
name=ik_.mot
DataType=double
version=3
OpenSimVersion=4.3-2021-08-27-4bc7ad9
endheader
time	pelvis_tilt	pelvis_list	pelvis_rotation	pelvis_tx	pelvis_ty	pelvis_tz	hip_flexion_r	hip_adduction_r	hip_rotation_r	knee_angle_r	knee_angle_r_beta	ankle_angle_r	subtalar_angle_r	mtp_angle_r	hip_flexion_l	hip_adduction_l	hip_rotation_l	knee_angle_l	knee_angle_l_beta	ankle_angle_l	subtalar_angle_l	mtp_angle_l	lumbar_extension	lumbar_bending	lumbar_rotation	arm_flex_r	arm_add_r	arm_rot_r	elbow_flex_r	pro_sup_r	wrist_flex_r	wrist_dev_r	arm_flex_l	arm_add_l	arm_rot_l	elbow_flex_l	pro_sup_l	wrist_flex_l	wrist_dev_l
6.92	0.4931585981121545	-1.668270174105039	0.4289255926690778	0	0.9399999999999999	0	44.21549300708487	-10.05094912600704	0	60.52429797979249	1.056348277205531	-5.011210139970994	0	0	44.21549300708487	-10.05094912600704	0	60.52429797979249	1.056348277205531	-5.011210139970994	0	0	-4.166944104134988	-36.64926345040473	-4.035703216211082	0	-12.2192650748849	0	75.01522557509207	44.95662018253211	0	0	-81.3809098758887	30.50643749003043	89.99639313977626	0.002089655861165943	44.95662018253211	0	0
6.93	0.5183386863128971	-1.664541697859215	0.4487166937062603	0	0.9399999999999999	0	44.21660759183665	-10.05069582424409	0	60.52371499849815	1.056338102262468	-5.011137445952068	0	0	44.21660759183665	-10.05069582424409	0	60.52371499849815	1.056338102262468	-5.011137445952068	0	0	-2.987493739623508	-36.65733377827156	-0.5183365563557993	0	-12.22128550625883	0	75.01520419568426	44.95679076919568	0	0	-85.91046819811871	24.76659179210202	89.99654642007862	0.002255770182438677	44.95679076919568	0	0
6.94	0.5225017766687922	-1.664197924765314	0.4662020221261425	0	0.9399999999999999	0	44.21748131930103	-10.05049779270777	0	60.52325800620677	1.056330126242327	-5.011080683570102	0	0	44.21748131930103	-10.05049779270777	0	60.52325800620677	1.056330126242327	-5.011080683570102	0	0	-2.311756245001085	-36.57283543643751	1.676464584634851	0	-12.22286994645	0	75.01518743627504	44.95692424453849	0	0	-88.79320453735112	21.08320093004297	89.99662015068388	0.002369714755094572	44.95692424453849	0	0
6.95	0.5328865226309836	-1.658752149539284	0.4843199957183794	0	0.9399999999999999	0	44.21799789413411	-10.05038120273641	0	60.52298732100368	1.056325401894296	-5.011047309104796	0	0	44.21799789413411	-10.05038120273641	0	60.52298732100368	1.056325401894296	-5.011047309104796	0	0	-3.000388660227078	-36.38713283802626	2.173316147162463	0	-12.22380821564634	0	75.01517752758477	44.95700290569484	0	0	-89.86912637048265	17.95366906514031	89.99664302361576	0.002485880259786351	44.95700290569484	0	0
6.96	0.5434057595519802	-1.656292421602537	0.5038908374322647	0	0.9399999999999999	0	44.21828301642682	-10.05031695961145	0	60.52283786708073	1.056322793431261	-5.011028931221138	0	0	44.21828301642682	-10.05031695961145	0	60.52283786708073	1.056322793431261	-5.011028931221138	0	0	-4.247063087883642	-36.38197440442805	1.777641855224195	0	-12.22432630364529	0	75.0151720585047	44.95704626947155	0	0	-89.93879418638669	15.38409347515853	89.99665989293591	0.002588330862188476	44.95704626947155	0	0
6.97	0.5322768377735577	-1.680819369564295	0.5029008700477948	0	0.9399999999999999	0	44.21865285519494	-10.05023359012686	0	60.52264420973481	1.056319413472954	-5.011005085130592	0	0	44.21865285519494	-10.05023359012686	0	60.52264420973481	1.056319413472954	-5.011005085130592	0	0	-5.055355319363882	-36.35730653317812	1.542227962962776	0	-12.22499791803393	0	75.01516496443446	44.95710254509159	0	0	-89.95559526902927	13.47553240490871	89.99667762012314	0.002664882922963414	44.95710254509159	0	0
6.98	0.5262649067154835	-1.667540739071875	0.523871653956846	0	0.9399999999999999	0	44.2189326012823	-10.05017067062808	0	60.52249759233755	1.056316854516631	-5.010987101238953	0	0	44.2189326012823	-10.05017067062808	0	60.52249759233755	1.056316854516631	-5.010987101238953	0	0	-5.059555892637467	-36.31719535608193	1.508640343864194	0	-12.22550633726673	0	75.01515959847708	44.95714503956655	0	0	-89.95626776515648	15.33338629953996	89.99663727912018	0.002586154483845231	44.95714503956655	0	0
6.99	0.5273618604553982	-1.65347734564829	0.557166097124088	0	0.9399999999999999	0	44.21917494346866	-10.05011616125152	0	60.52237064186507	1.056314638812899	-5.01097152340011	0	0	44.21917494346866	-10.05011616125152	0	60.52237064186507	1.056314638812899	-5.01097152340011	0	0	-5.041638467127931	-36.44215827472799	1.466379161834897	0	-12.22594666573014	0	75.01515494998384	44.9571818564542	0	0	-89.95556013352133	15.59626357916943	89.99664314934833	0.0025626610130937	44.9571818564542	0	0
